<?xml version="1.0" standalone="no"?>
<!DOCTYPE svg PUBLIC "-//W3C//DTD SVG 20010904//EN"
 "http://www.w3.org/TR/2001/REC-SVG-20010904/DTD/svg10.dtd">
<svg version="1.0" xmlns="http://www.w3.org/2000/svg"
 width="2485.000000pt" height="2485.000000pt" viewBox="0 0 2485.000000 2485.000000"
 preserveAspectRatio="xMidYMid meet">
<metadata>
Created by potrace 1.11, written by Peter Selinger 2001-2013
</metadata>
<g transform="translate(0.000000,2485.000000) scale(0.100000,-0.100000)"
fill="#000000" stroke="none">
<path d="M0 12427 l0 -12422 12418 0 12417 0 3 12423 2 12422 -12420 0 -12420
0 0 -12423z m24805 1 c0 -12371 0 -12378 -20 -12379 -26 -1 -24717 -1 -24731
0 -8 1 -11 3500 -11 12379 l0 12379 12381 0 12381 0 0 -12379z"/>
<path d="M2000 15968 l0 -6973 1388 -1388 1389 -1389 1 6959 c0 3827 1 6965 1
6974 1 15 340 16 3974 13 2184 -1 3997 -5 4027 -8 30 -2 87 -7 125 -10 39 -3
102 -8 140 -12 39 -3 86 -7 105 -9 43 -4 149 -16 170 -20 8 -1 40 -6 70 -10
136 -17 424 -67 580 -101 63 -14 125 -28 138 -30 34 -7 237 -60 322 -84 41
-12 100 -28 130 -36 72 -19 391 -127 505 -171 121 -46 261 -102 310 -123 315
-139 649 -306 823 -412 34 -21 64 -38 66 -38 6 0 140 -83 281 -173 175 -113
434 -297 576 -411 14 -12 43 -34 65 -51 72 -56 274 -228 374 -319 90 -83 235
-223 345 -336 103 -106 122 -125 215 -230 36 -40 70 -78 75 -84 6 -6 33 -38
60 -71 28 -33 58 -69 69 -80 10 -11 30 -36 45 -55 14 -19 32 -42 40 -50 8 -8
53 -66 100 -130 47 -63 89 -117 92 -120 27 -23 317 -462 416 -630 117 -198
175 -303 266 -485 209 -418 384 -864 513 -1308 25 -86 47 -165 49 -175 2 -9 4
-17 5 -17 1 0 3 -11 6 -24 2 -13 14 -60 25 -105 12 -45 23 -92 25 -106 3 -14
7 -32 10 -40 5 -14 19 -81 30 -140 2 -14 9 -45 14 -70 13 -58 50 -274 55 -320
3 -19 6 -44 8 -55 3 -11 8 -47 11 -80 4 -33 9 -73 11 -90 13 -100 27 -249 40
-405 21 -269 21 -772 0 -1040 -22 -278 -25 -317 -40 -420 -2 -14 -7 -52 -11
-85 -3 -33 -8 -67 -10 -77 -1 -9 -6 -38 -10 -65 -3 -26 -8 -57 -10 -68 -2 -10
-6 -35 -9 -55 -3 -20 -7 -47 -10 -60 -3 -14 -9 -50 -15 -80 -13 -71 -18 -99
-25 -130 -3 -14 -7 -34 -9 -45 -3 -11 -14 -63 -26 -115 -12 -52 -23 -102 -25
-110 -8 -38 -97 -365 -109 -403 -8 -23 -28 -87 -46 -142 -207 -656 -534 -1330
-937 -1932 -124 -185 -327 -462 -424 -577 -55 -67 -185 -219 -204 -240 -216
-243 -481 -508 -685 -686 -35 -30 -75 -65 -89 -78 -219 -194 -667 -523 -966
-708 -395 -244 -847 -470 -1245 -624 -74 -29 -148 -58 -165 -65 -53 -22 -426
-143 -555 -179 -221 -62 -549 -139 -690 -162 -14 -3 -47 -9 -75 -14 -27 -5
-63 -12 -80 -14 -74 -12 -163 -25 -202 -30 -24 -4 -60 -8 -80 -11 -75 -10
-119 -15 -183 -21 -36 -4 -78 -8 -95 -10 -16 -1 -73 -6 -125 -9 -52 -3 -115
-9 -140 -12 -25 -3 -1483 -7 -3240 -9 -1757 -1 -3199 -3 -3205 -3 -5 -1 614
-625 1378 -1389 l1387 -1387 1793 1 c985 1 1844 4 1907 8 165 8 288 16 340 21
25 2 81 7 125 10 44 3 91 8 105 10 14 2 55 6 92 10 37 3 75 7 85 9 10 2 48 7
85 10 37 4 77 9 90 11 34 6 87 13 143 20 28 4 102 16 165 26 63 11 131 22 150
25 19 2 89 16 155 29 66 13 131 26 145 29 20 3 190 40 280 61 71 16 310 78
330 85 14 5 36 12 50 14 88 16 592 177 804 257 72 28 136 51 141 53 13 4 19 6
210 83 250 101 491 211 751 342 351 177 438 225 779 432 165 100 505 325 633
418 682 497 1195 960 1775 1605 16 17 61 69 100 116 39 47 76 90 82 95 6 6 73
88 149 184 404 507 746 1025 1066 1616 45 82 211 414 250 500 79 170 135 299
186 425 31 74 62 149 70 167 8 17 14 37 14 45 0 8 4 18 9 24 4 5 32 74 60 154
29 80 61 168 71 195 50 133 198 618 224 735 2 8 9 35 16 60 7 25 14 52 15 60
2 8 19 80 39 160 19 80 37 156 39 170 3 14 14 68 25 120 12 52 23 109 26 125
3 17 8 46 11 65 3 19 10 53 15 75 5 22 11 60 15 85 3 25 8 52 10 60 2 8 7 35
10 60 13 97 16 117 25 170 5 30 12 80 15 110 3 30 8 66 10 80 4 28 15 120 20
165 11 113 16 166 20 210 2 28 6 86 10 130 3 44 8 107 10 140 23 293 23 1118
0 1325 -2 19 -6 78 -10 131 -3 54 -8 108 -10 120 -2 13 -6 64 -10 113 -4 49
-8 98 -10 110 -2 11 -6 48 -10 81 -6 59 -11 93 -19 158 -3 17 -8 55 -11 82 -3
28 -10 75 -15 105 -5 30 -12 73 -15 95 -3 22 -15 92 -26 155 -12 63 -23 126
-25 140 -15 83 -71 346 -101 470 -19 80 -36 152 -38 160 -10 42 -78 291 -91
331 -8 25 -16 54 -18 65 -28 136 -300 896 -401 1119 -7 17 -39 89 -70 160 -93
213 -355 735 -434 865 -11 19 -24 42 -28 50 -4 8 -47 83 -96 165 -49 83 -97
163 -106 178 -32 57 -272 419 -342 519 -128 181 -448 602 -478 628 -3 3 -24
28 -46 55 -21 28 -51 64 -66 80 -15 17 -64 73 -109 125 -201 232 -619 660
-820 840 -46 41 -88 80 -94 85 -9 8 -142 123 -206 178 -12 11 -138 115 -207
172 -17 13 -30 24 -83 65 -25 19 -47 37 -50 40 -31 36 -536 396 -740 527 -125
80 -371 233 -375 233 -2 0 -47 26 -102 58 -54 32 -134 78 -178 102 -44 23
-104 56 -134 72 -134 74 -506 256 -661 323 -41 18 -95 42 -121 53 -145 66
-537 216 -784 300 -365 124 -787 241 -1128 313 -78 16 -151 32 -162 35 -11 2
-36 7 -55 10 -19 3 -66 12 -105 19 -38 8 -86 16 -105 19 -19 3 -48 8 -65 11
-154 26 -389 60 -480 70 -33 3 -79 8 -102 10 -197 22 -280 29 -443 41 -41 3
-106 8 -145 11 -38 3 -2512 8 -5497 10 l-5428 3 0 -6972z"/>
</g>
</svg>
